<?xml version="1.0" standalone="no"?>
<!DOCTYPE svg PUBLIC "-//W3C//DTD SVG 20010904//EN"
 "http://www.w3.org/TR/2001/REC-SVG-20010904/DTD/svg10.dtd">
<svg version="1.0" xmlns="http://www.w3.org/2000/svg"
 width="528.000000pt" height="443.000000pt" viewBox="0 0 528.000000 443.000000"
 preserveAspectRatio="xMidYMid meet">
<metadata>
Created by potrace 1.16, written by Peter Selinger 2001-2019
</metadata>
<g transform="translate(0.000000,443.000000) scale(0.100000,-0.100000)"
fill="#000000" stroke="none">
<path d="M2110 3689 c-7 -24 -13 -48 -15 -54 -1 -5 -5 -17 -8 -25 -3 -8 -15
-49 -25 -90 -11 -41 -45 -165 -77 -275 -31 -110 -68 -238 -81 -285 -14 -47
-31 -107 -39 -135 -8 -27 -32 -113 -54 -190 -22 -77 -45 -156 -51 -175 -5 -19
-24 -84 -41 -145 -31 -113 -81 -288 -148 -525 -22 -74 -55 -193 -75 -264 -20
-72 -43 -149 -51 -173 -19 -54 -18 -63 0 -39 8 11 15 16 15 11 0 -4 30 21 68
56 37 35 112 105 166 154 55 50 122 111 150 137 28 26 74 65 103 85 29 21 52
44 53 51 0 6 3 12 8 12 4 0 36 27 72 60 36 33 68 60 73 60 4 0 7 5 7 10 0 11
50 59 62 60 4 0 48 40 99 90 50 49 93 90 95 90 2 0 12 8 22 18 10 9 56 51 101
92 46 41 95 87 111 103 15 15 32 27 37 27 5 0 15 11 23 24 7 13 21 27 32 29
24 7 17 42 -24 110 -15 26 -28 51 -28 55 0 8 -82 174 -90 182 -10 10 -30 46
-55 100 -14 30 -32 66 -39 80 -8 14 -26 50 -42 80 -15 30 -34 61 -41 68 -7 7
-16 25 -20 40 -3 15 -9 29 -13 32 -4 3 -62 113 -130 245 -67 132 -126 244
-130 249 -5 5 -14 -11 -20 -35z"/>
</g>
</svg>
